<svg data-name="Layer 1" xmlns="http://www.w3.org/2000/svg" viewBox="0 0 128 128"><path d="M127.994 16.609a1.763 1.763 0 0 0-2.13-1.774L1.363 43.043A1.75 1.75 0 0 0 .775 46.2l33.937 22.756 19.071 36.4a1.773 1.773 0 0 0 2.721.489L70.695 93.08l29.581 19.832a1.75 1.75 0 0 0 2.667-1.008l25-94.917a1.84 1.84 0 0 0 .051-.378zM59.2 82.941a1.82 1.82 0 0 0-.416.759l-4.027 15.972-16.365-31.235 78.027-44.3L59.23 82.908c-.009.01-.016.023-.03.033zm55.887-62.077-78.96 44.83L6.1 45.559zM58.437 99.4l.293-1.16 2.845-11.272 6.122 4.1zm41.747 9.239L71.517 89.417 63.2 83.844l59.659-61.311z"/></svg>